<?xml version="1.0"?>
<svg version="1.1" xmlns="http://www.w3.org/2000/svg" width="120" height="40" style="border: dashed 2px #aaa"><path fill="#e6ed0c" d="M16.5,29.3l4.2-5.6l-3.7-5.3l-1.5-0.4l0-1.1l5.3-0.1l0,1.2l-1.3,0.4l2.6,3.8l2.6-3.8l-1.4-0.4l0-1.1l5.3-0.1l0,1.2l-1.8,0.4l-3.6,5.2l3.9,5.6l1.7,0.4l0,1.2l-5.4,0l0-1.2l1.2-0.3l-2.8-4.1l-3,4l1.7,0.4l0,1.2l-5.3,0l0-1.2z"/><path fill="#f0f4f7" d="M45.644,29.2l1.9,0.4l0,1.2l-5.4,0l0-1.2l1.7-0.4l0-10.8l-1.7-0.4l0-1.1l4.2-0.1l6.6,11.18l0-9.58l-1.7-0.4l0-1.1l5.2-0.1l0,1.2l-1.7,0.4l0,12.4l-2.5,0l-6.6-11.02l0,9.42z M60.016,29.3l4.2-5.6l-3.7-5.3l-1.5-0.4l0-1.1l5.3-0.1l0,1.2l-1.3,0.4l2.6,3.8l2.6-3.8l-1.4-0.4l0-1.1l5.3-0.1l0,1.2l-1.8,0.4l-3.6,5.2l3.9,5.6l1.7,0.4l0,1.2l-5.4,0l0-1.2l1.2-0.3l-2.8-4.1l-3,4l1.7,0.4l0,1.2l-5.3,0l0-1.2z M78.188,29.2l1.9,0.4l0,1.2l-5.4,0l0-1.2l1.7-0.4l0-10.8l-1.7-0.4l0-1.1l4.2-0.1l6.6,11.18l0-9.58l-1.7-0.4l0-1.1l5.2-0.1l0,1.2l-1.7,0.4l0,12.4l-2.5,0l-6.6-11.02l0,9.42z"/></svg>
